<?xml version="1.0" encoding="UTF-8" standalone="no"?>
<!-- Created with Inkscape (http://www.inkscape.org/) -->

<svg
   xmlns:dc="http://purl.org/dc/elements/1.1/"
   xmlns:cc="http://creativecommons.org/ns#"
   xmlns:rdf="http://www.w3.org/1999/02/22-rdf-syntax-ns#"
   xmlns:svg="http://www.w3.org/2000/svg"
   xmlns="http://www.w3.org/2000/svg"
   xmlns:sodipodi="http://sodipodi.sourceforge.net/DTD/sodipodi-0.dtd"
   xmlns:inkscape="http://www.inkscape.org/namespaces/inkscape"
   version="1.1"
   id="svg2"
   xml:space="preserve"
   width="128"
   height="128"
   viewBox="0 0 128 128"
   sodipodi:docname="instagram.svg"
   inkscape:version="0.92.4 5da689c313, 2019-01-14"><metadata
     id="metadata8"><rdf:RDF><cc:Work
         rdf:about=""><dc:format>image/svg+xml</dc:format><dc:type
           rdf:resource="http://purl.org/dc/dcmitype/StillImage" /><dc:title></dc:title></cc:Work></rdf:RDF></metadata><defs
     id="defs6"><clipPath
       clipPathUnits="userSpaceOnUse"
       id="clipPath20"><path
         d="M 5000,0 H 0 V 5000 H 5000 V 0 M 914.984,3737.17 V 441.969 H 4210.19 V 3737.17 H 914.984"
         id="path18"
         inkscape:connector-curvature="0" /></clipPath><radialGradient
       fx="0"
       fy="0"
       cx="0"
       cy="0"
       r="1"
       gradientUnits="userSpaceOnUse"
       gradientTransform="matrix(0,-4227.56,-4227.56,0,2500,2500)"
       spreadMethod="pad"
       id="radialGradient30"><stop
         style="stop-opacity:1;stop-color:#ffffff"
         offset="0"
         id="stop22" /><stop
         style="stop-opacity:1;stop-color:#ffffff"
         offset="0.354512"
         id="stop24" /><stop
         style="stop-opacity:1;stop-color:#ffffff"
         offset="0.5442531"
         id="stop26" /><stop
         style="stop-opacity:1;stop-color:#c1d0d7"
         offset="1"
         id="stop28" /></radialGradient><clipPath
       clipPathUnits="userSpaceOnUse"
       id="clipPath40"><path
         d="M 914,1757 V 3738 H 3227 V 1757 Z"
         id="path38"
         inkscape:connector-curvature="0" /></clipPath><clipPath
       clipPathUnits="userSpaceOnUse"
       id="clipPath52"><path
         d="m 3221,441 v 3297 h 990 V 441 Z"
         id="path50"
         inkscape:connector-curvature="0" /></clipPath><clipPath
       clipPathUnits="userSpaceOnUse"
       id="clipPath64"><path
         d="M 914,441 V 1762 H 3227 V 441 Z"
         id="path62"
         inkscape:connector-curvature="0" /></clipPath><clipPath
       clipPathUnits="userSpaceOnUse"
       id="clipPath76"><path
         d="M 3899.65,2957.49 V 1462.2 c 0,-364.34 -295.35,-659.68 -659.71,-659.68 H 1744.66 c -364.31,0 -659.67,295.34 -659.67,659.68 v 1495.29 c 0,364.31 295.36,659.68 659.67,659.68 h 1495.28 c 364.36,0 659.71,-295.37 659.71,-659.68 z"
         id="path74"
         inkscape:connector-curvature="0" /></clipPath><linearGradient
       x1="0"
       y1="0"
       x2="1"
       y2="0"
       gradientUnits="userSpaceOnUse"
       gradientTransform="matrix(-1425.7,-2562.66,-2562.66,1425.7,3183.38,3451.97)"
       spreadMethod="pad"
       id="linearGradient94"><stop
         style="stop-opacity:1;stop-color:#4845a2"
         offset="0"
         id="stop78" /><stop
         style="stop-opacity:1;stop-color:#a844a1"
         offset="0.27612833"
         id="stop80" /><stop
         style="stop-opacity:1;stop-color:#a844a1"
         offset="0.300215"
         id="stop82" /><stop
         style="stop-opacity:1;stop-color:#a844a1"
         offset="0.40251075"
         id="stop84" /><stop
         style="stop-opacity:1;stop-color:#d7243e"
         offset="0.603623"
         id="stop86" /><stop
         style="stop-opacity:1;stop-color:#d7243e"
         offset="0.60569022"
         id="stop88" /><stop
         style="stop-opacity:1;stop-color:#f9a326"
         offset="0.876623"
         id="stop90" /><stop
         style="stop-opacity:1;stop-color:#f9dd26"
         offset="1"
         id="stop92" /></linearGradient><clipPath
       clipPathUnits="userSpaceOnUse"
       id="clipPath104"><path
         d="m 1926.14,3806.67 h -100.32 c -8.29,0 -15,6.71 -15,15 0,8.29 6.71,15 15,15 h 100.32 c 8.28,0 15,-6.71 15,-15 0,-8.29 -6.72,-15 -15,-15 z m 200.65,0 h -100.33 c -8.28,0 -15,6.71 -15,15 0,8.29 6.72,15 15,15 h 100.33 c 8.28,0 15,-6.71 15,-15 0,-8.29 -6.72,-15 -15,-15 z m 200.64,0 h -100.32 c -8.29,0 -15,6.71 -15,15 0,8.29 6.71,15 15,15 h 100.32 c 8.29,0 15,-6.71 15,-15 0,-8.29 -6.71,-15 -15,-15 z m 200.65,0 h -100.33 c -8.28,0 -15,6.71 -15,15 0,8.29 6.72,15 15,15 h 100.33 c 8.28,0 15,-6.71 15,-15 0,-8.29 -6.72,-15 -15,-15 z m 200.64,0 H 2628.4 c -8.28,0 -15,6.71 -15,15 0,8.29 6.72,15 15,15 h 100.32 c 8.28,0 15,-6.71 15,-15 0,-8.29 -6.72,-15 -15,-15 z m 200.65,0 h -100.33 c -8.28,0 -15,6.71 -15,15 0,8.29 6.72,15 15,15 h 100.33 c 8.28,0 15,-6.71 15,-15 0,-8.29 -6.72,-15 -15,-15 z m 200.64,0 h -100.32 c -8.28,0 -15,6.71 -15,15 0,8.29 6.72,15 15,15 h 100.32 c 8.28,0 15,-6.71 15,-15 0,-8.29 -6.72,-15 -15,-15 z m 200.65,0 h -100.32 c -8.28,0 -15,6.71 -15,15 0,8.29 6.72,15 15,15 h 100.32 c 8.29,0 15,-6.71 15,-15 0,-8.29 -6.71,-15 -15,-15 z m -1707.15,0 c -8.29,0 -15,6.71 -15,15 0,8.28 6.71,15 15,15 h 101.98 c 8.29,0 15,-6.71 15,-15 0,-8.29 -6.71,-15 -15,-15 z m 1905.86,-22.92 c -1.22,0 -2.45,0.15 -3.68,0.46 -31.61,7.96 -64.13,13.89 -96.64,17.61 -8.22,0.94 -14.13,8.38 -13.19,16.6 0.94,8.23 8.24,14.22 16.61,13.2 33.82,-3.87 67.66,-10.03 100.55,-18.32 8.03,-2.02 12.91,-10.18 10.88,-18.21 -1.71,-6.8 -7.83,-11.34 -14.53,-11.34 z m -2104.09,-3.71 c -6.59,0 -12.64,4.39 -14.46,11.06 -2.18,7.99 2.53,16.24 10.53,18.42 32.76,8.93 66.46,15.74 100.18,20.27 8.18,1.07 15.76,-4.67 16.86,-12.88 1.1,-8.21 -4.66,-15.76 -12.88,-16.86 -32.4,-4.34 -64.79,-10.89 -96.27,-19.48 -1.32,-0.36 -2.65,-0.53 -3.96,-0.53 z m 2289.92,-70.52 c -2.5,0 -5.02,0.62 -7.36,1.93 -28.52,16.06 -58.35,30.35 -88.64,42.45 -7.7,3.08 -11.44,11.8 -8.36,19.5 3.08,7.7 11.82,11.41 19.49,8.36 31.53,-12.59 62.55,-27.45 92.24,-44.17 7.22,-4.06 9.77,-13.21 5.7,-20.43 -2.75,-4.89 -7.84,-7.64 -13.07,-7.64 z m -2474.1,-7.21 c -5.14,0 -10.14,2.65 -12.94,7.39 -4.2,7.14 -1.82,16.34 5.32,20.54 29.29,17.25 59.99,32.68 91.26,45.88 7.61,3.22 16.43,-0.35 19.65,-7.99 3.22,-7.63 -0.35,-16.43 -7.98,-19.65 -30.05,-12.68 -59.56,-27.52 -87.71,-44.09 -2.39,-1.41 -5.01,-2.08 -7.6,-2.08 z m 2633.94,-113.08 c -3.8,0 -7.6,1.43 -10.52,4.31 -23.3,22.91 -48.35,44.48 -74.45,64.13 -6.61,4.98 -7.94,14.39 -2.96,21 4.99,6.63 14.38,7.95 21.01,2.97 27.14,-20.44 53.2,-42.88 77.44,-66.71 5.9,-5.81 5.98,-15.31 0.17,-21.21 -2.93,-2.99 -6.81,-4.49 -10.69,-4.49 z m -2791.43,-10.15 c -3.79,0 -7.58,1.42 -10.5,4.28 -5.92,5.8 -6.02,15.3 -0.21,21.22 23.78,24.27 49.4,47.19 76.15,68.13 6.52,5.11 15.95,3.96 21.06,-2.57 5.1,-6.52 3.95,-15.95 -2.57,-21.05 -25.72,-20.13 -50.35,-42.17 -73.22,-65.51 -2.93,-3 -6.82,-4.5 -10.71,-4.5 z m 2914.43,-147.52 c -5.15,0 -10.16,2.65 -12.95,7.41 -16.5,28.13 -35.06,55.47 -55.17,81.25 -5.1,6.53 -3.93,15.96 2.6,21.05 6.55,5.1 15.97,3.93 21.05,-2.6 20.92,-26.82 40.23,-55.26 57.4,-84.52 4.19,-7.15 1.79,-16.34 -5.35,-20.53 -2.39,-1.4 -5,-2.06 -7.58,-2.06 z M 963.563,3419.02 c -2.485,0 -5.004,0.62 -7.325,1.93 -7.222,4.05 -9.793,13.2 -5.742,20.42 16.617,29.61 35.399,58.42 55.814,85.65 4.98,6.63 14.39,7.96 21,3 6.63,-4.97 7.97,-14.38 3,-21 -19.63,-26.17 -37.677,-53.87 -53.65,-82.33 -2.75,-4.9 -7.847,-7.67 -13.097,-7.67 z M 4075.43,3247.21 c -6.61,0 -12.66,4.4 -14.47,11.09 -8.52,31.48 -19.26,62.73 -31.93,92.88 -3.21,7.64 0.38,16.43 8.02,19.64 7.64,3.2 16.44,-0.39 19.64,-8.02 13.18,-31.38 24.36,-63.9 33.23,-96.66 2.16,-8 -2.57,-16.24 -10.56,-18.4 -1.31,-0.36 -2.63,-0.53 -3.93,-0.53 z M 889.668,3233.06 c -1.199,0 -2.426,0.14 -3.648,0.45 -8.036,2.01 -12.922,10.15 -10.915,18.19 8.247,32.98 18.801,65.74 31.375,97.36 3.067,7.7 11.79,11.46 19.481,8.4 7.699,-3.06 11.457,-11.78 8.398,-19.48 -12.086,-30.39 -22.226,-61.87 -30.148,-93.56 -1.707,-6.81 -7.82,-11.36 -14.543,-11.36 z m 3212.082,-184.1 c -8.28,0 -15,6.7 -15,14.99 -0.02,32.77 -2.2,65.75 -6.47,98.04 -1.08,8.22 4.7,15.75 12.91,16.84 8.2,1.14 15.76,-4.69 16.84,-12.9 4.43,-33.59 6.7,-67.89 6.72,-101.97 0,-8.28 -6.71,-15 -14.99,-15 z M 867.043,3034.33 c -8.289,0 -15,6.71 -15,15 v 14.21 c 0,29.21 1.648,58.68 4.906,87.58 0.926,8.23 8.399,14.11 16.586,13.23 8.235,-0.93 14.156,-8.36 13.227,-16.59 -3.133,-27.78 -4.719,-56.12 -4.719,-84.22 v -14.21 c 0,-8.29 -6.715,-15 -15,-15 z M 4101.75,2848.31 c -8.28,0 -15,6.71 -15,15 v 100.32 c 0,8.29 6.72,15 15,15 8.28,0 15,-6.71 15,-15 v -100.32 c 0,-8.29 -6.72,-15 -15,-15 z M 867.043,2833.69 c -8.289,0 -15,6.71 -15,15 v 100.32 c 0,8.28 6.711,15 15,15 8.285,0 15,-6.72 15,-15 v -100.32 c 0,-8.29 -6.715,-15 -15,-15 z M 4101.75,2647.67 c -8.28,0 -15,6.71 -15,15 v 100.32 c 0,8.28 6.72,15 15,15 8.28,0 15,-6.72 15,-15 v -100.32 c 0,-8.29 -6.72,-15 -15,-15 z M 867.043,2633.04 c -8.289,0 -15,6.71 -15,15 v 100.32 c 0,8.29 6.711,15 15,15 8.285,0 15,-6.71 15,-15 v -100.32 c 0,-8.29 -6.715,-15 -15,-15 z M 4101.75,2447.02 c -8.28,0 -15,6.72 -15,15 v 100.32 c 0,8.29 6.72,15 15,15 8.28,0 15,-6.71 15,-15 v -100.32 c 0,-8.28 -6.72,-15 -15,-15 z M 867.043,2432.39 c -8.289,0 -15,6.72 -15,15 v 100.32 c 0,8.29 6.711,15 15,15 8.285,0 15,-6.71 15,-15 v -100.32 c 0,-8.28 -6.715,-15 -15,-15 z M 4101.75,2246.38 c -8.28,0 -15,6.72 -15,15 v 100.32 c 0,8.28 6.72,15 15,15 8.28,0 15,-6.72 15,-15 v -100.32 c 0,-8.28 -6.72,-15 -15,-15 z M 867.043,2231.75 c -8.289,0 -15,6.72 -15,15 v 100.32 c 0,8.28 6.711,15 15,15 8.285,0 15,-6.72 15,-15 v -100.32 c 0,-8.28 -6.715,-15 -15,-15 z M 4101.75,2045.73 c -8.28,0 -15,6.72 -15,15 v 100.32 c 0,8.29 6.72,15 15,15 8.28,0 15,-6.71 15,-15 v -100.32 c 0,-8.28 -6.72,-15 -15,-15 z M 867.043,2031.1 c -8.289,0 -15,6.72 -15,15 v 100.33 c 0,8.28 6.711,15 15,15 8.285,0 15,-6.72 15,-15 V 2046.1 c 0,-8.28 -6.715,-15 -15,-15 z M 4101.75,1845.08 c -8.28,0 -15,6.72 -15,15 v 100.33 c 0,8.28 6.72,15 15,15 8.28,0 15,-6.72 15,-15 v -100.33 c 0,-8.28 -6.72,-15 -15,-15 z M 867.043,1830.46 c -8.289,0 -15,6.72 -15,15 v 100.32 c 0,8.28 6.711,15 15,15 8.285,0 15,-6.72 15,-15 v -100.32 c 0,-8.28 -6.715,-15 -15,-15 z M 4101.75,1644.43 c -8.28,0 -15,6.72 -15,15 v 100.33 c 0,8.28 6.72,15 15,15 8.28,0 15,-6.72 15,-15 v -100.33 c 0,-8.28 -6.72,-15 -15,-15 z M 867.043,1629.81 c -8.289,0 -15,6.72 -15,15 v 100.33 c 0,8.28 6.711,15 15,15 8.285,0 15,-6.72 15,-15 v -100.33 c 0,-8.28 -6.715,-15 -15,-15 z M 4101.75,1443.79 c -8.28,0 -15,6.72 -15,15 v 100.32 c 0,8.28 6.72,15 15,15 8.28,0 15,-6.72 15,-15 v -100.32 c 0,-8.28 -6.72,-15 -15,-15 z M 867.043,1429.16 c -8.289,0 -15,6.72 -15,15 v 100.32 c 0,8.28 6.711,15 15,15 8.285,0 15,-6.72 15,-15 v -100.32 c 0,-8.28 -6.715,-15 -15,-15 z m 3229.827,-185.8 -1.72,0.1 c -8.24,0.93 -14.14,8.37 -13.21,16.6 3.19,27.99 4.81,56.59 4.81,85.02 v 13.39 c 0,8.28 6.72,15 15,15 8.28,0 15,-6.72 15,-15 v -13.39 c 0,-29.56 -1.68,-59.31 -5,-88.42 -0.87,-7.66 -7.37,-13.3 -14.88,-13.3 z M 873.715,1228.85 c -7.402,0 -13.844,5.48 -14.848,13.02 -4.476,33.55 -6.777,67.85 -6.836,101.95 -0.015,8.29 6.692,15.02 14.977,15.03 h 0.023 c 8.274,0 14.985,-6.7 15,-14.97 0.059,-32.81 2.266,-65.79 6.574,-98.05 1.09,-8.21 -4.675,-15.75 -12.886,-16.85 z M 4048.07,1049.34 c -1.86,0 -3.74,0.34 -5.56,1.06 -7.7,3.08 -11.45,11.8 -8.38,19.49 12.12,30.37 22.3,61.83 30.25,93.52 2.03,8.04 10.13,12.88 18.21,10.9 8.04,-2.02 12.91,-10.17 10.9,-18.21 -8.28,-32.98 -18.88,-65.72 -31.49,-97.32 -2.34,-5.87 -7.98,-9.44 -13.93,-9.44 z M 926.254,1035.88 c -5.848,0 -11.41,3.44 -13.828,9.17 -13.196,31.32 -24.414,63.83 -33.344,96.64 -2.18,7.99 2.539,16.23 10.531,18.41 8.016,2.19 16.242,-2.54 18.414,-10.54 8.582,-31.52 19.36,-62.76 32.047,-92.85 3.219,-7.64 -0.363,-16.44 -8,-19.65 -1.898,-0.81 -3.875,-1.18 -5.82,-1.18 z M 3949.97,874.949 c -3.14,0 -6.31,0.981 -9,3.012 -6.62,4.98 -7.95,14.379 -2.98,21 19.65,26.129 37.72,53.801 53.74,82.269 4.06,7.219 13.22,9.79 20.43,5.719 7.22,-4.058 9.78,-13.211 5.72,-20.429 -16.67,-29.622 -35.48,-58.411 -55.91,-85.579 -2.95,-3.929 -7.45,-5.992 -12,-5.992 z m -2922.4,-11.41 c -4.45,0 -8.86,1.981 -11.82,5.77 -20.941,26.761 -40.281,55.179 -57.492,84.453 -4.199,7.148 -1.817,16.34 5.328,20.539 7.137,4.211 16.324,1.808 20.531,-5.332 16.543,-28.129 35.133,-55.449 55.263,-81.188 5.1,-6.519 3.95,-15.941 -2.58,-21.051 -2.74,-2.148 -5.99,-3.191 -9.23,-3.191 z m 2782.28,-131.32 c -4.46,0 -8.87,1.98 -11.83,5.773 -5.1,6.52 -3.94,15.957 2.6,21.047 25.72,20.09 50.38,42.102 73.28,65.43 5.81,5.902 15.29,6.023 21.21,0.203 5.91,-5.801 5.99,-15.301 0.19,-21.211 -23.82,-24.27 -49.46,-47.172 -76.23,-68.07 -2.73,-2.141 -5.98,-3.172 -9.22,-3.172 z m -2639.49,-8.727 c -3.14,0 -6.3,0.969 -9,2.996 -27.17,20.403 -53.24,42.832 -77.52,66.633 -5.91,5.801 -6,15.301 -0.2,21.219 5.79,5.89 15.29,6 21.21,0.199 23.34,-22.891 48.41,-44.437 74.53,-64.059 6.62,-4.968 7.95,-14.378 2.98,-21.011 -2.95,-3.91 -7.45,-5.977 -12,-5.977 z M 3637.46,631 c -5.86,0 -11.42,3.441 -13.84,9.18 -3.21,7.629 0.37,16.429 8.01,19.64 30.04,12.641 59.56,27.45 87.76,44.012 7.15,4.16 16.32,1.789 20.54,-5.34 4.19,-7.152 1.8,-16.344 -5.34,-20.543 -29.35,-17.23 -60.07,-32.629 -91.32,-45.777 -1.9,-0.801 -3.88,-1.172 -5.81,-1.172 z M 1344.8,625.492 c -1.84,0 -3.72,0.34 -5.54,1.059 -31.56,12.57 -62.6,27.41 -92.28,44.078 -7.22,4.07 -9.78,13.211 -5.73,20.43 4.06,7.222 13.21,9.812 20.43,5.73 28.52,-16.039 58.35,-30.289 88.68,-42.367 7.7,-3.063 11.45,-11.781 8.39,-19.481 -2.34,-5.882 -7.98,-9.449 -13.95,-9.449 z M 3444.42,578.59 c -7.4,0 -13.84,5.48 -14.85,13.031 -1.08,8.199 4.69,15.75 12.9,16.848 32.39,4.301 64.8,10.82 96.3,19.363 7.97,2.188 16.24,-2.551 18.4,-10.543 2.18,-8 -2.55,-16.238 -10.55,-18.398 -32.77,-8.903 -66.48,-15.692 -100.2,-20.172 z m -1905.54,-1.77 -1.71,0.09 c -33.77,3.832 -67.6,9.961 -100.56,18.211 -8.04,2.008 -12.92,10.149 -10.91,18.188 2.01,8.05 10.17,12.89 18.2,10.91 31.67,-7.93 64.19,-13.821 96.65,-17.5 8.23,-0.93 14.15,-8.36 13.21,-16.59 -0.86,-7.66 -7.35,-13.309 -14.88,-13.309 z m 200.41,-4.871 h -100.33 c -8.28,0 -15,6.723 -15,15 0,8.281 6.72,15 15,15 h 100.33 c 8.29,0 15,-6.719 15,-15 0,-8.277 -6.71,-15 -15,-15 z m 200.65,0 h -100.33 c -8.28,0 -15,6.723 -15,15 0,8.281 6.72,15 15,15 h 100.33 c 8.28,0 15,-6.719 15,-15 0,-8.277 -6.72,-15 -15,-15 z m 200.64,0 h -100.32 c -8.29,0 -15,6.723 -15,15 0,8.281 6.71,15 15,15 h 100.32 c 8.29,0 15,-6.719 15,-15 0,-8.277 -6.71,-15 -15,-15 z m 200.65,0 H 2240.9 c -8.28,0 -15,6.723 -15,15 0,8.281 6.72,15 15,15 h 100.33 c 8.28,0 15,-6.719 15,-15 0,-8.277 -6.72,-15 -15,-15 z m 200.65,0 h -100.33 c -8.29,0 -15,6.723 -15,15 0,8.281 6.71,15 15,15 h 100.33 c 8.28,0 15,-6.719 15,-15 0,-8.277 -6.72,-15 -15,-15 z m 200.64,0 H 2642.2 c -8.28,0 -15,6.723 -15,15 0,8.281 6.72,15 15,15 h 100.32 c 8.28,0 15,-6.719 15,-15 0,-8.277 -6.72,-15 -15,-15 z m 200.64,0 h -100.32 c -8.28,0 -15,6.723 -15,15 0,8.281 6.72,15 15,15 h 100.32 c 8.29,0 15,-6.719 15,-15 0,-8.277 -6.71,-15 -15,-15 z m 200.65,0 h -100.32 c -8.28,0 -15,6.723 -15,15 0,8.281 6.72,15 15,15 h 100.32 c 8.28,0 15,-6.719 15,-15 0,-8.277 -6.72,-15 -15,-15 z m 200.65,0 h -100.33 c -8.28,0 -15,6.723 -15,15 0,8.281 6.72,15 15,15 h 99.5 c 8.28,0 15.41,-6.719 15.41,-15 0,-8.277 -6.3,-15 -14.58,-15 z"
         id="path102"
         inkscape:connector-curvature="0" /></clipPath><linearGradient
       x1="0"
       y1="0"
       x2="1"
       y2="0"
       gradientUnits="userSpaceOnUse"
       gradientTransform="matrix(2.465e-4,3264.71,3264.71,-2.465e-4,2484.39,571.95)"
       spreadMethod="pad"
       id="linearGradient122"><stop
         style="stop-opacity:1;stop-color:#4845a2"
         offset="0"
         id="stop106" /><stop
         style="stop-opacity:1;stop-color:#a844a1"
         offset="0.27612833"
         id="stop108" /><stop
         style="stop-opacity:1;stop-color:#a844a1"
         offset="0.300215"
         id="stop110" /><stop
         style="stop-opacity:1;stop-color:#a844a1"
         offset="0.40251075"
         id="stop112" /><stop
         style="stop-opacity:1;stop-color:#d7243e"
         offset="0.603623"
         id="stop114" /><stop
         style="stop-opacity:1;stop-color:#d7243e"
         offset="0.60569022"
         id="stop116" /><stop
         style="stop-opacity:1;stop-color:#f9a326"
         offset="0.876623"
         id="stop118" /><stop
         style="stop-opacity:1;stop-color:#f9dd26"
         offset="1"
         id="stop120" /></linearGradient><linearGradient
       x1="0"
       y1="0"
       x2="1"
       y2="0"
       gradientUnits="userSpaceOnUse"
       gradientTransform="matrix(189,0,0,-189,154.558,422.088)"
       spreadMethod="pad"
       id="linearGradient148"><stop
         style="stop-opacity:1;stop-color:#4845a2"
         offset="0"
         id="stop132" /><stop
         style="stop-opacity:1;stop-color:#a844a1"
         offset="0.27612833"
         id="stop134" /><stop
         style="stop-opacity:1;stop-color:#a844a1"
         offset="0.300215"
         id="stop136" /><stop
         style="stop-opacity:1;stop-color:#a844a1"
         offset="0.40251075"
         id="stop138" /><stop
         style="stop-opacity:1;stop-color:#d7243e"
         offset="0.603623"
         id="stop140" /><stop
         style="stop-opacity:1;stop-color:#d7243e"
         offset="0.60569022"
         id="stop142" /><stop
         style="stop-opacity:1;stop-color:#f9a326"
         offset="0.876623"
         id="stop144" /><stop
         style="stop-opacity:1;stop-color:#f9dd26"
         offset="1"
         id="stop146" /></linearGradient></defs><sodipodi:namedview
     pagecolor="#ffffff"
     bordercolor="#666666"
     borderopacity="1"
     objecttolerance="10"
     gridtolerance="10"
     guidetolerance="10"
     inkscape:pageopacity="0"
     inkscape:pageshadow="2"
     inkscape:window-width="1866"
     inkscape:window-height="1051"
     id="namedview4"
     showgrid="false"
     inkscape:zoom="1.0012632"
     inkscape:cx="-94.624414"
     inkscape:cy="120.73479"
     inkscape:window-x="54"
     inkscape:window-y="0"
     inkscape:window-maximized="1"
     inkscape:current-layer="g10" /><g
     id="g10"
     inkscape:groupmode="layer"
     inkscape:label="ink_ext_XXXXXX"
     transform="matrix(1.3333333,0,0,-1.3333333,0,127.99998)"><g
       id="g988"
       transform="matrix(0.3410714,0,0,0.3410714,-37.005906,-27.371507)"><g
         transform="scale(0.1)"
         id="g70"><g
           id="g72"
           clip-path="url(#clipPath76)"><path
             d="M 3899.65,2957.49 V 1462.2 c 0,-364.34 -295.35,-659.68 -659.71,-659.68 H 1744.66 c -364.31,0 -659.67,295.34 -659.67,659.68 v 1495.29 c 0,364.31 295.36,659.68 659.67,659.68 h 1495.28 c 364.36,0 659.71,-295.37 659.71,-659.68"
             style="fill:url(#linearGradient94);fill-opacity:1;fill-rule:nonzero;stroke:none"
             id="path96"
             inkscape:connector-curvature="0" /></g></g><path
         d="m 333.258,175.655 c 0,-21.843 -17.707,-39.549 -39.551,-39.549 h -89.301 c -21.841,0 -39.549,17.706 -39.549,39.549 v 89.301 c 0,21.846 17.708,39.549 39.549,39.549 h 89.301 c 21.844,0 39.551,-17.703 39.551,-39.549 z m -40.57,148.374 h -87.261 c -32.906,0 -59.579,-26.675 -59.579,-59.58 v -87.26 c 0,-32.908 26.673,-59.581 59.579,-59.581 h 87.261 c 32.904,0 59.58,26.673 59.58,59.581 v 87.26 c 0,32.905 -26.676,59.58 -59.58,59.58"
         style="fill:#ffffff;fill-opacity:1;fill-rule:nonzero;stroke:none;stroke-width:0.1"
         id="path126"
         inkscape:connector-curvature="0" /><path
         d="m 249.057,185.586 c -19.175,0 -34.719,15.544 -34.719,34.72 0,19.175 15.544,34.716 34.719,34.716 19.175,0 34.718,-15.541 34.718,-34.716 0,-19.176 -15.543,-34.72 -34.718,-34.72 m 0,88.278 c -29.58,0 -53.56,-23.976 -53.56,-53.558 0,-29.58 23.98,-53.561 53.56,-53.561 29.58,0 53.56,23.981 53.56,53.561 0,29.582 -23.98,53.558 -53.56,53.558"
         style="fill:#ffffff;fill-opacity:1;fill-rule:nonzero;stroke:none;stroke-width:0.1"
         id="path128"
         inkscape:connector-curvature="0" /><path
         d="m 304.402,288.379 c -6.89,0 -12.476,-5.587 -12.476,-12.477 0,-6.89 5.586,-12.475 12.476,-12.475 6.892,0 12.479,5.585 12.479,12.475 0,6.89 -5.587,12.477 -12.479,12.477"
         style="fill:#ffffff;fill-opacity:1;fill-rule:nonzero;stroke:none;stroke-width:0.1"
         id="path130"
         inkscape:connector-curvature="0" /></g></g></svg>