<?xml version="1.0" encoding="UTF-8" standalone="no"?>
<!-- Created with Inkscape (http://www.inkscape.org/) -->

<svg
   xmlns:dc="http://purl.org/dc/elements/1.1/"
   xmlns:cc="http://creativecommons.org/ns#"
   xmlns:rdf="http://www.w3.org/1999/02/22-rdf-syntax-ns#"
   xmlns:svg="http://www.w3.org/2000/svg"
   xmlns="http://www.w3.org/2000/svg"
   xmlns:sodipodi="http://sodipodi.sourceforge.net/DTD/sodipodi-0.dtd"
   xmlns:inkscape="http://www.inkscape.org/namespaces/inkscape"
   version="1.1"
   id="svg2"
   xml:space="preserve"
   width="128"
   height="128"
   viewBox="0 0 128 128"
   sodipodi:docname="linkedin.svg"
   inkscape:version="0.92.4 5da689c313, 2019-01-14"><metadata
     id="metadata8"><rdf:RDF><cc:Work
         rdf:about=""><dc:format>image/svg+xml</dc:format><dc:type
           rdf:resource="http://purl.org/dc/dcmitype/StillImage" /><dc:title></dc:title></cc:Work></rdf:RDF></metadata><defs
     id="defs6" /><sodipodi:namedview
     pagecolor="#ffffff"
     bordercolor="#666666"
     borderopacity="1"
     objecttolerance="10"
     gridtolerance="10"
     guidetolerance="10"
     inkscape:pageopacity="0"
     inkscape:pageshadow="2"
     inkscape:window-width="1866"
     inkscape:window-height="1051"
     id="namedview4"
     showgrid="false"
     inkscape:zoom="2.4583333"
     inkscape:cx="19.860715"
     inkscape:cy="28.628439"
     inkscape:window-x="54"
     inkscape:window-y="0"
     inkscape:window-maximized="1"
     inkscape:current-layer="g10" /><g
     id="g10"
     inkscape:groupmode="layer"
     inkscape:label="ink_ext_XXXXXX"
     transform="matrix(1.3333333,0,0,-1.3333333,0,128)"><g
       id="g12"
       transform="scale(0.1)"><g
         id="g4535"
         transform="matrix(0.66665742,0,0,0.66666668,5.8233193e-6,0)"><path
           inkscape:connector-curvature="0"
           id="path14"
           style="fill:#0977b6;fill-opacity:1;fill-rule:nonzero;stroke:none"
           d="M 1333.43,1440 H 106.289 C 47.6484,1440 0,1393.52 0,1336.21 V 103.91 C 0,46.5508 47.6484,0 106.289,0 H 1333.43 c 58.74,0 106.59,46.5508 106.59,103.91 v 1232.3 c 0,57.31 -47.85,103.79 -106.59,103.79" /><path
           inkscape:connector-curvature="0"
           id="path16"
           style="fill:#ffffff;fill-opacity:1;fill-rule:nonzero;stroke:none"
           d="m 320.344,1241.75 c 68.277,0 123.765,-55.5 123.765,-123.8 0,-68.36 -55.488,-123.868 -123.765,-123.868 -68.457,0 -123.867,55.508 -123.867,123.868 0,68.3 55.41,123.8 123.867,123.8 M 213.496,900.137 H 427.09 V 212.93 H 213.496 v 687.207" /><path
           inkscape:connector-curvature="0"
           id="path18"
           style="fill:#ffffff;fill-opacity:1;fill-rule:nonzero;stroke:none"
           d="M 561.047,900.137 H 765.93 v -93.891 h 2.84 c 28.496,54.027 98.171,110.996 202.082,110.996 216.278,0 256.208,-142.336 256.208,-327.359 V 212.93 h -213.44 v 334.187 c 0,79.731 -1.46,182.235 -110.983,182.235 -111.145,0 -128.164,-86.825 -128.164,-176.461 V 212.93 H 561.047 v 687.207" /></g></g></g></svg>