<?xml version="1.0" encoding="UTF-8" standalone="no"?>
<svg
   xmlns:dc="http://purl.org/dc/elements/1.1/"
   xmlns:cc="http://creativecommons.org/ns#"
   xmlns:rdf="http://www.w3.org/1999/02/22-rdf-syntax-ns#"
   xmlns:svg="http://www.w3.org/2000/svg"
   xmlns="http://www.w3.org/2000/svg"
   xmlns:sodipodi="http://sodipodi.sourceforge.net/DTD/sodipodi-0.dtd"
   xmlns:inkscape="http://www.inkscape.org/namespaces/inkscape"
   version="1.1"
   width="24"
   height="24"
   viewBox="0 0 24 24"
   id="svg4"
   sodipodi:docname="web.svg"
   inkscape:version="0.92.4 5da689c313, 2019-01-14">
  <metadata
     id="metadata10">
    <rdf:RDF>
      <cc:Work
         rdf:about="">
        <dc:format>image/svg+xml</dc:format>
        <dc:type
           rdf:resource="http://purl.org/dc/dcmitype/StillImage" />
      </cc:Work>
    </rdf:RDF>
  </metadata>
  <defs
     id="defs8" />
  <sodipodi:namedview
     pagecolor="#ffffff"
     bordercolor="#666666"
     borderopacity="1"
     objecttolerance="10"
     gridtolerance="10"
     guidetolerance="10"
     inkscape:pageopacity="0"
     inkscape:pageshadow="2"
     inkscape:window-width="1866"
     inkscape:window-height="1051"
     id="namedview6"
     showgrid="false"
     inkscape:zoom="13.906433"
     inkscape:cx="15.266579"
     inkscape:cy="3.6897572"
     inkscape:window-x="54"
     inkscape:window-y="0"
     inkscape:window-maximized="1"
     inkscape:current-layer="svg4" />
  <path
     d="M 17.232,14.4 C 17.328,13.608 17.4,12.816 17.4,12 c 0,-0.816 -0.072,-1.608 -0.168,-2.4 h 4.056 c 0.192,0.768 0.312,1.572 0.312,2.4 0,0.828 -0.12,1.632 -0.312,2.4 m -6.18,6.672 C 15.828,19.74 16.38,18.3 16.764,16.8 h 3.54 c -1.152,1.98 -2.988,3.516 -5.196,4.272 M 14.808,14.4 H 9.192 C 9.072,13.608 9,12.816 9,12 9,11.184 9.072,10.38 9.192,9.6 h 5.616 C 14.916,10.38 15,11.184 15,12 c 0,0.816 -0.084,1.608 -0.192,2.4 M 12,21.552 C 11.004,20.112 10.2,18.516 9.708,16.8 h 4.584 C 13.8,18.516 12.996,20.112 12,21.552 M 7.2,7.2 H 3.696 C 4.836,5.208 6.684,3.672 8.88,2.928 8.16,4.26 7.62,5.7 7.2,7.2 M 3.696,16.8 H 7.2 c 0.42,1.5 0.96,2.94 1.68,4.272 C 6.684,20.316 4.836,18.78 3.696,16.8 M 2.712,14.4 C 2.52,13.632 2.4,12.828 2.4,12 2.4,11.172 2.52,10.368 2.712,9.6 H 6.768 C 6.672,10.392 6.6,11.184 6.6,12 c 0,0.816 0.072,1.608 0.168,2.4 M 12,2.436 c 0.996,1.44 1.8,3.048 2.292,4.764 H 9.708 C 10.2,5.484 11.004,3.876 12,2.436 M 20.304,7.2 h -3.54 C 16.38,5.7 15.828,4.26 15.108,2.928 17.316,3.684 19.152,5.208 20.304,7.2 M 12,0 C 5.364,0 0,5.4 0,12 A 12,12 0 0 0 12,24 12,12 0 0 0 24,12 12,12 0 0 0 12,0 Z"
     id="path2"
     inkscape:connector-curvature="0"
     style="stroke-width:1.20000005;fill:#6855f9;fill-opacity:1" />
</svg>
